<svg width="1306" height="230" viewBox="0 0 1306 230" fill="none" xmlns="http://www.w3.org/2000/svg">
<path d="M99.0488 229.408C40.6431 229.408 0 181.238 0 115.908C0 49.6749 43.6537 3.61273 102.36 3.61273C160.766 3.61273 201.71 52.0834 201.71 117.112C201.71 183.346 158.057 229.408 99.0488 229.408ZM30.7081 106.876C30.7081 173.712 63.8248 220.075 105.672 220.075C144.81 220.075 170.701 180.937 170.701 126.144C170.701 59.0078 137.886 12.6445 95.7371 12.6445C56.9004 12.6445 30.7081 52.0834 30.7081 106.876Z" fill="#0F0F0F"/>
<path d="M206.967 224.892V219.172L221.418 217.968L227.439 213.452V16.5583L206.967 12.3435V7.22544L248.513 0H253.029V213.452L259.051 217.968L273.501 219.172V224.892H206.967Z" fill="#0F0F0F"/>
<path d="M326.46 227.903C292.139 227.903 268.355 197.194 268.355 153.842C268.355 105.672 298.461 70.147 339.405 70.147C349.942 70.147 360.48 72.5555 371.619 77.0714V16.8594L345.728 12.3435V7.22544L392.091 0H397.209V212.549L402.327 216.161L415.858 218.68L416.176 224.891L376.737 225.795H371.619L371.92 208.936L372.221 201.409H370.716L368.608 204.42C358.673 219.473 344.523 227.903 326.46 227.903ZM295.451 144.81C295.451 184.55 312.912 212.85 338.502 212.85C352.351 212.85 361.684 205.022 369.812 195.087L371.619 193.281V96.3393L365.598 90.9202C357.469 83.6947 348.437 79.4799 338.201 79.4799C313.213 79.4799 295.451 105.973 295.451 144.81Z" fill="#0F0F0F"/>
<path d="M411.689 224.891V218.928L428.247 217.966L435.172 213.451L483.642 19.5678L476.718 15.0519L460.16 13.8476V8.1275H611.292V72.8555H605.271L583.895 17.4604H512.544L488.76 113.499L528.801 113.8L559.208 107.477H565.531V130.358H559.208L528.801 124.036H486.051L463.772 213.451L474.911 217.966L502.308 219.171V224.891H411.689Z" fill="#0F0F0F"/>
<path d="M571.491 224.89L606.113 89.4128L583.232 85.198V80.381L628.09 73.1556H634.412V77.6715L608.22 175.516H610.93L633.81 126.142C650.67 89.7139 662.411 73.7577 683.485 73.7577H685.894V101.154H682.582C655.185 101.154 644.949 118.315 621.166 163.775L601.898 201.407L595.576 224.89H571.491Z" fill="#0F0F0F"/>
<path d="M714.619 89.4128L691.738 85.198V80.381L736.596 73.1556H742.918V77.6715L711.909 191.773C708.597 204.719 710.705 211.944 717.629 211.944C723.048 211.944 726.661 206.826 732.682 195.386L742.617 176.72L750.144 180.032L740.209 198.999C729.371 219.772 720.941 227.298 707.393 227.298C690.233 227.298 680.9 215.256 688.728 186.655L714.619 89.4128ZM717.93 27.0934C717.93 16.8573 726.059 8.72868 736.295 8.72868C746.531 8.72868 754.359 16.8573 754.359 27.0934C754.359 37.3294 746.531 45.458 736.295 45.458C726.059 45.458 717.93 37.3294 717.93 27.0934Z" fill="#0F0F0F"/>
<path d="M801.959 229.406C773.479 229.406 752.893 209.527 752.297 176.396C752.289 175.905 752.284 175.411 752.284 174.914C752.284 170.451 752.621 165.891 753.277 161.291C759.528 117.485 794.736 70.145 843.505 70.145C865.483 70.145 881.439 78.8757 881.439 96.3372C881.439 113.498 865.784 135.776 810.088 148.12L780.283 155.044C779.38 160.162 779.079 165.581 779.079 170.398C779.079 198.999 793.228 212.245 811.593 212.245C823.334 212.245 837.785 205.923 851.333 189.365L857.956 180.935L865.182 186.655L859.161 194.784C840.796 219.471 822.13 229.406 801.959 229.406ZM781.788 145.41L807.378 138.486C846.215 127.647 855.849 109.885 855.849 97.2404C855.849 85.8001 847.72 79.7789 835.678 79.7789C809.185 79.7789 789.014 112.293 781.788 145.41Z" fill="#0F0F0F"/>
<path d="M874.098 224.89L908.72 89.4128L885.84 85.198V80.381L930.698 73.4566H937.02V77.6715L911.731 174.914H914.139L935.816 130.357C958.997 81.8863 974.05 71.9513 991.813 71.9513C1016.8 71.9513 1026.13 91.2192 1015.9 124.035L995.125 192.074C991.211 205.02 992.415 211.944 999.339 211.944C1004.76 211.944 1008.37 206.826 1014.39 195.386L1024.33 176.72L1031.85 180.032L1021.92 198.999C1011.08 219.772 1002.65 227.298 989.103 227.298C971.943 227.298 962.911 215.256 971.642 186.956L991.813 121.325C998.135 100.853 994.522 89.7139 980.975 89.7139C967.728 89.7139 956.89 104.466 920.462 170.097L906.312 196.289L898.785 224.89H874.098Z" fill="#0F0F0F"/>
<path d="M1074.61 229.105C1050.82 229.105 1034.87 205.321 1034.87 172.806C1034.87 124.035 1071.9 70.7471 1114.35 70.7471C1130.6 70.7471 1144.15 78.8757 1150.77 93.0255H1152.28L1171.25 16.8573L1148.37 12.6425V7.82551L1193.22 0.901123H1199.55V5.11597L1151.98 191.773C1148.67 204.719 1151.38 211.944 1158.3 211.944C1163.72 211.944 1167.33 206.826 1173.35 195.386L1183.29 176.72L1190.82 180.032L1180.88 198.999C1170.04 219.772 1161.61 227.298 1148.07 227.298C1130.91 227.298 1121.27 215.256 1128.8 186.655L1139.94 142.7H1138.13L1125.49 171.301C1109.23 209.536 1095.68 229.105 1074.61 229.105ZM1061.36 174.011C1061.36 198.096 1069.49 210.439 1082.74 210.439C1097.79 210.439 1105.31 194.182 1125.79 155.044L1146.26 117.11L1149.27 104.165C1142.04 88.8107 1131.51 82.4884 1120.37 82.4884C1090.56 82.4884 1061.36 131.862 1061.36 174.011Z" fill="#0F0F0F"/>
<path d="M1244.16 229.406C1215.86 229.406 1188.76 212.245 1190.87 178.828V174.914H1218.57L1218.26 180.634C1215.55 207.127 1230.61 219.772 1246.86 219.772C1261.92 219.772 1275.16 209.536 1275.16 193.58C1274.86 179.129 1261.92 168.893 1251.68 161.366L1233.62 147.216C1221.88 138.787 1210.14 127.647 1210.14 110.487C1210.14 85.8001 1233.92 69.8439 1260.71 69.8439C1283.9 69.8439 1305.7 82.1874 1306 112.293V117.11H1286.3V111.39C1286.3 88.2086 1271.55 79.4778 1258.91 79.4778C1245.06 79.4778 1233.62 89.4128 1233.62 102.358C1233.62 113.197 1242.65 123.734 1253.79 131.561L1271.85 145.711C1284.8 155.345 1298.95 166.484 1298.95 185.15C1298.95 211.944 1273.06 229.406 1244.16 229.406Z" fill="#0F0F0F"/>
</svg>
